<svg width="12" height="10" viewBox="0 0 12 10" fill="none" xmlns="http://www.w3.org/2000/svg">
<path d="M3.875 5.25C3.875 3.88281 4.98828 2.75 6.375 2.75C7.74219 2.75 8.875 3.88281 8.875 5.25C8.875 6.63672 7.74219 7.75 6.375 7.75C4.98828 7.75 3.875 6.63672 3.875 5.25ZM6.375 6.8125C7.23438 6.8125 7.9375 6.12891 7.9375 5.25C7.9375 4.39062 7.23438 3.6875 6.375 3.6875C6.35547 3.6875 6.33594 3.6875 6.31641 3.6875C6.35547 3.80469 6.375 3.90234 6.375 4C6.375 4.70312 5.80859 5.25 5.125 5.25C5.00781 5.25 4.91016 5.25 4.8125 5.21094C4.8125 5.23047 4.8125 5.25 4.8125 5.25C4.8125 6.12891 5.49609 6.8125 6.375 6.8125ZM2.60547 2.45703C3.52344 1.59766 4.79297 0.875 6.375 0.875C7.9375 0.875 9.20703 1.59766 10.125 2.45703C11.043 3.29688 11.6484 4.3125 11.9414 5.01562C12 5.17188 12 5.34766 11.9414 5.50391C11.6484 6.1875 11.043 7.20312 10.125 8.0625C9.20703 8.92188 7.9375 9.625 6.375 9.625C4.79297 9.625 3.52344 8.92188 2.60547 8.0625C1.6875 7.20312 1.08203 6.1875 0.789062 5.50391C0.730469 5.34766 0.730469 5.17188 0.789062 5.01562C1.08203 4.3125 1.6875 3.29688 2.60547 2.45703ZM6.375 1.8125C5.08594 1.8125 4.05078 2.39844 3.25 3.14062C2.48828 3.84375 1.98047 4.66406 1.70703 5.25C1.98047 5.83594 2.48828 6.67578 3.25 7.37891C4.05078 8.12109 5.08594 8.6875 6.375 8.6875C7.64453 8.6875 8.67969 8.12109 9.48047 7.37891C10.2422 6.67578 10.75 5.83594 11.0234 5.25C10.75 4.66406 10.2422 3.84375 9.48047 3.14062C8.67969 2.39844 7.64453 1.8125 6.375 1.8125Z" fill="#818CF8"/>
</svg>
