<svg width="20" height="19" viewBox="0 0 20 19" fill="none" xmlns="http://www.w3.org/2000/svg">
<path d="M0 2.39062C0 1.49219 0.703125 0.75 1.60156 0.75H18.3594C19.2578 0.75 20 1.49219 20 2.39062C20 2.78125 19.8438 3.13281 19.6094 3.40625L13.125 11.4141V17C13.125 17.7031 12.5391 18.25 11.8359 18.25C11.5625 18.25 11.2891 18.1719 11.0547 17.9766L7.46094 15.125C7.07031 14.8125 6.875 14.3828 6.875 13.9141V11.4141L0.351562 3.40625C0.117188 3.13281 0 2.78125 0 2.39062ZM2.10938 2.625L8.51562 10.4766C8.67188 10.6719 8.75 10.8672 8.75 11.0625V13.7578L11.25 15.75V11.0625C11.25 10.8672 11.2891 10.6719 11.4453 10.4766L17.8516 2.625H2.10938Z" fill="#F8FAFC"/>
</svg>
