<svg width="44" height="39" viewBox="0 0 44 39" fill="none" xmlns="http://www.w3.org/2000/svg">
<path d="M13.2231 7.50053C15.439 7.50053 17.314 9.37553 17.314 11.5914C17.314 13.8926 15.439 15.6824 13.2231 15.6824C10.922 15.6824 9.13219 13.8926 9.13219 11.5914C9.13219 9.37553 10.922 7.50053 13.2231 7.50053ZM38.3651 0.000535488C41.4333 0.000535488 43.8197 2.47213 43.8197 5.45508V32.7278C43.8197 35.796 41.3481 38.1824 38.3651 38.1824H5.63787C2.65492 38.1824 0.183327 35.796 0.183327 32.7278V5.45508C0.183327 2.47213 2.65492 0.000535488 5.63787 0.000535488H38.3651ZM39.7288 32.2164V5.45508C39.7288 4.77326 39.1322 4.09144 38.3651 4.09144H5.63787C4.95605 4.09144 4.27424 4.77326 4.27424 5.45508L4.35946 32.7278L10.7515 24.7164C11.0924 24.3755 11.5186 24.1199 12.0299 24.1199C12.5413 24.1199 12.9674 24.3755 13.3083 24.7164L16.4617 28.6369L25.4958 16.3642C25.8367 15.938 26.2629 15.6824 26.8595 15.6824C27.3708 15.6824 27.797 15.938 28.0526 16.3642L39.7288 32.2164Z" fill="#94A3B8"/>
</svg>
