<svg width="32" height="32" viewBox="0 0 32 32" fill="none" xmlns="http://www.w3.org/2000/svg">
<path d="M15.25 19.75L8.25 12.75C7.875 12.375 7.875 11.6875 8.25 11.3125C8.625 10.9375 9.3125 10.9375 9.6875 11.3125L15 16.625V1C15 0.5 15.4375 0 16 0C16.5 0 17 0.5 17 1V16.625L22.25 11.3125C22.625 10.9375 23.3125 10.9375 23.6875 11.3125C24.0625 11.6875 24.0625 12.375 23.6875 12.75L16.6875 19.75C16.5 19.9375 16.25 20 16 20C15.6875 20 15.4375 19.9375 15.25 19.75ZM29 20C30.625 20 32 21.375 32 23V29C32 30.6875 30.625 32 29 32H3C1.3125 32 0 30.6875 0 29V23C0 21.375 1.3125 20 3 20H8C8.375 20 8.6875 20.25 8.875 20.5625L10.5625 24H21.375L23.0625 20.5625C23.25 20.25 23.5625 20 24 20H29ZM30 29V23C30 22.5 29.5 22 29 22H24.5625L22.875 25.5C22.6875 25.8125 22.375 26 22 26H9.9375C9.5625 26 9.25 25.8125 9.0625 25.5L7.375 22H3C2.4375 22 2 22.5 2 23V29C2 29.5625 2.4375 30 3 30H29C29.5 30 30 29.5625 30 29Z" fill="#94A3B8"/>
</svg>
