<svg width="13" height="11" viewBox="0 0 13 11" fill="none" xmlns="http://www.w3.org/2000/svg">
<path d="M4.5 10.1875C4.5 10.5156 4.24219 10.75 3.9375 10.75H2.25C0.984375 10.75 0 9.76562 0 8.5V2.5C0 1.25781 0.984375 0.25 2.25 0.25H3.9375C4.24219 0.25 4.5 0.507812 4.5 0.8125C4.5 1.14062 4.24219 1.375 3.9375 1.375H2.25C1.61719 1.375 1.125 1.89062 1.125 2.5V8.5C1.125 9.13281 1.61719 9.625 2.25 9.625H3.9375C4.24219 9.625 4.5 9.88281 4.5 10.1875ZM11.8359 5.125L8.85938 1.9375C8.64844 1.70312 8.29688 1.70312 8.0625 1.91406C7.82812 2.125 7.82812 2.47656 8.03906 2.71094L10.125 4.9375H4.28906C3.98438 4.9375 3.75 5.19531 3.75 5.5C3.75 5.82812 3.98438 6.0625 4.28906 6.0625H10.1016L7.99219 8.3125C7.78125 8.54688 7.78125 8.89844 8.01562 9.10938C8.15625 9.20312 8.29688 9.25 8.41406 9.25C8.55469 9.25 8.69531 9.20312 8.8125 9.08594L11.7891 5.89844C12.0469 5.6875 12.0469 5.33594 11.8359 5.125Z" fill="white"/>
</svg>
