<svg width="125" height="40" viewBox="0 0 125 40" fill="none" xmlns="http://www.w3.org/2000/svg">
<path d="M101.023 1.80908V4.67529C101.023 5.17688 100.629 5.53515 100.163 5.53515C99.6617 5.53515 99.3035 5.17688 99.3035 4.67529V1.80908C99.3035 1.34332 99.6617 0.949215 100.163 0.949215C100.629 0.949215 101.023 1.34332 101.023 1.80908ZM95.3266 2.34649L97.3329 4.35284C97.6554 4.71112 97.6554 5.24853 97.3329 5.57098C96.9747 5.92926 96.4373 5.92926 96.1148 5.57098L94.1085 3.56463C93.7502 3.24218 93.7502 2.70477 94.1085 2.34649C94.4309 2.02404 94.9683 2.02404 95.3266 2.34649ZM106.218 3.56463H106.182L104.176 5.57098C103.854 5.92926 103.316 5.92926 102.994 5.57098C102.635 5.24853 102.635 4.71112 102.994 4.35284L105 2.38232C105.323 2.02404 105.86 2.02404 106.218 2.38232C106.541 2.70477 106.541 3.24218 106.218 3.56463ZM105.896 7.82812C107.15 7.82812 108.189 8.86712 108.189 10.1211V14.707C108.189 15.9968 107.15 17 105.896 17L105.502 18.4331C105.394 18.9347 104.928 19.293 104.391 19.293H103.889C103.388 19.293 102.922 18.9347 102.779 18.4331L102.6 17.6091C101.847 17.9673 101.023 18.1465 100.163 18.1465C98.8735 18.1465 97.6554 17.7524 96.7239 17H90.9915L90.6332 18.4331C90.4899 18.9347 90.0241 19.293 89.5225 19.293H89.0209C88.4835 19.293 88.0178 18.9347 87.8745 18.4331L87.552 17C86.2622 17 85.259 15.9968 85.259 14.707V10.1211C85.259 8.86712 86.2622 7.82812 87.552 7.82812H96.7239C97.6554 7.11157 98.8735 6.68164 100.163 6.68164C101.453 6.68164 102.635 7.11157 103.603 7.82812H105.896ZM100.163 15.8535C102.062 15.8535 103.603 14.3129 103.603 12.4141C103.603 10.5152 102.062 8.97461 100.163 8.97461C98.2645 8.97461 96.7239 10.5152 96.7239 12.4141C96.7239 14.3129 98.2645 15.8535 100.163 15.8535ZM89.845 12.4141C89.845 11.805 89.3076 11.2676 88.6985 11.2676C88.0536 11.2676 87.552 11.805 87.552 12.4141C87.552 13.059 88.0536 13.5605 88.6985 13.5605C89.3076 13.5605 89.845 13.059 89.845 12.4141ZM92.1379 13.5605C92.747 13.5605 93.2844 13.059 93.2844 12.4141C93.2844 11.805 92.747 11.2676 92.1379 11.2676C91.493 11.2676 90.9915 11.805 90.9915 12.4141C90.9915 13.059 91.493 13.5605 92.1379 13.5605Z" fill="#C7D2FE"/>
<path d="M2.03125 19.8073H6.04167V35.5495H15.5469V39H2.03125V19.8073ZM29.6875 31.6042V19.8073H33.763V31.6042C33.763 33.6441 33.4462 35.2326 32.8125 36.3698C31.6319 38.4531 29.3793 39.4948 26.0547 39.4948C22.73 39.4948 20.4731 38.4531 19.2839 36.3698C18.6502 35.2326 18.3333 33.6441 18.3333 31.6042V19.8073H22.4089V31.6042C22.4089 32.9236 22.5651 33.8872 22.8776 34.4948C23.3637 35.5712 24.4227 36.1094 26.0547 36.1094C27.6779 36.1094 28.7326 35.5712 29.2187 34.4948C29.5312 33.8872 29.6875 32.9236 29.6875 31.6042ZM41.276 39H37.5391V19.8073H43.3724L46.862 34.8984L50.3255 19.8073H56.0937V39H52.3568V26.0182C52.3568 25.645 52.3611 25.1241 52.3698 24.4557C52.3785 23.7786 52.3828 23.2578 52.3828 22.8932L48.75 39H44.8568L41.25 22.8932C41.25 23.2578 41.2543 23.7786 41.263 24.4557C41.2717 25.1241 41.276 25.645 41.276 26.0182V39ZM68.3073 39.5339C65.5642 39.5339 63.4679 38.7873 62.0182 37.2943C60.0738 35.4627 59.1016 32.8238 59.1016 29.3776C59.1016 25.862 60.0738 23.2231 62.0182 21.4609C63.4679 19.9679 65.5642 19.2214 68.3073 19.2214C71.0503 19.2214 73.1467 19.9679 74.5963 21.4609C76.5321 23.2231 77.5 25.862 77.5 29.3776C77.5 32.8238 76.5321 35.4627 74.5963 37.2943C73.1467 38.7873 71.0503 39.5339 68.3073 39.5339ZM72.0963 34.3776C73.0252 33.2057 73.4896 31.5391 73.4896 29.3776C73.4896 27.2248 73.0208 25.5625 72.0833 24.3906C71.1545 23.2101 69.8958 22.6198 68.3073 22.6198C66.7187 22.6198 65.4514 23.2057 64.5052 24.3776C63.559 25.5495 63.0859 27.2161 63.0859 29.3776C63.0859 31.5391 63.559 33.2057 64.5052 34.3776C65.4514 35.5495 66.7187 36.1354 68.3073 36.1354C69.8958 36.1354 71.1588 35.5495 72.0963 34.3776ZM88.724 31.474H84.5833V39H80.6641V19.8073H90.0781C91.4236 19.8333 92.4566 19.9983 93.1771 20.3021C93.9062 20.6059 94.5226 21.053 95.026 21.6432C95.4427 22.1293 95.7726 22.6675 96.0156 23.2578C96.2587 23.8481 96.3802 24.5208 96.3802 25.276C96.3802 26.1875 96.1502 27.0859 95.6901 27.9714C95.23 28.8481 94.4705 29.4688 93.4115 29.8333C94.2969 30.1892 94.9219 30.697 95.2865 31.3568C95.6597 32.0078 95.8464 33.0061 95.8464 34.3516V35.6406C95.8464 36.5174 95.8811 37.112 95.9505 37.4245C96.0547 37.9193 96.2977 38.2839 96.6797 38.5182V39H92.2656C92.1441 38.5747 92.0573 38.2318 92.0052 37.9714C91.901 37.4332 91.8446 36.8819 91.8359 36.3177L91.8099 34.5339C91.7925 33.3099 91.5668 32.4939 91.1328 32.0859C90.7075 31.678 89.9045 31.474 88.724 31.474ZM91.1589 27.9844C91.9575 27.6198 92.3568 26.8993 92.3568 25.8229C92.3568 24.6597 91.9705 23.8785 91.1979 23.4792C90.7639 23.2535 90.1128 23.1406 89.2448 23.1406H84.5833V28.2969H89.1276C90.0304 28.2969 90.7075 28.1927 91.1589 27.9844ZM99.5312 19.8073H103.516V39H99.5312V19.8073ZM118.503 35.0547H111.432L110.104 39H105.911L112.76 19.8073H117.292L124.089 39H119.74L118.503 35.0547ZM117.383 31.7474L114.987 24.1953L112.513 31.7474H117.383Z" fill="#A5B4FC"/>
</svg>
