<svg width="11" height="11" viewBox="0 0 11 11" fill="none" xmlns="http://www.w3.org/2000/svg">
<path d="M10.125 5.5C10.125 5.82812 9.86719 6.0625 9.5625 6.0625H5.8125V9.8125C5.8125 10.1406 5.55469 10.3984 5.25 10.3984C4.92188 10.3984 4.6875 10.1406 4.6875 9.8125V6.0625H0.9375C0.609375 6.0625 0.375 5.82812 0.375 5.52344C0.375 5.19531 0.609375 4.9375 0.9375 4.9375H4.6875V1.1875C4.6875 0.882812 4.92188 0.648438 5.25 0.648438C5.55469 0.648438 5.8125 0.882812 5.8125 1.1875V4.9375H9.5625C9.86719 4.9375 10.125 5.19531 10.125 5.5Z" fill="white"/>
</svg>
