<svg width="11" height="13" viewBox="0 0 11 13" fill="none" xmlns="http://www.w3.org/2000/svg">
<path d="M10.4375 2.375C10.7422 2.375 11 2.63281 11 2.9375C11 3.26562 10.7422 3.5 10.4375 3.5H10.1562L9.59375 11.1172C9.52344 11.9141 8.89062 12.5 8.09375 12.5H3.38281C2.58594 12.5 1.95312 11.9141 1.88281 11.1172L1.32031 3.5H1.0625C0.734375 3.5 0.5 3.26562 0.5 2.9375C0.5 2.63281 0.734375 2.375 1.0625 2.375H2.67969L3.54688 1.08594C3.78125 0.734375 4.20312 0.5 4.64844 0.5H6.82812C7.27344 0.5 7.69531 0.734375 7.92969 1.08594L8.79688 2.375H10.4375ZM4.64844 1.625C4.57812 1.625 4.50781 1.67188 4.48438 1.71875L4.03906 2.375H7.4375L6.99219 1.71875C6.96875 1.67188 6.89844 1.625 6.82812 1.625H4.64844ZM9.03125 3.5H2.44531L3.00781 11.0469C3.03125 11.2344 3.19531 11.375 3.38281 11.375H8.09375C8.28125 11.375 8.44531 11.2344 8.46875 11.0469L9.03125 3.5Z" fill="white"/>
</svg>
