<svg width="188" height="201" viewBox="0 0 188 201" fill="none" xmlns="http://www.w3.org/2000/svg">
<path d="M107.848 40.7798C94.6334 35.9701 80.4811 42.8742 75.805 55.7216C70.9954 68.936 77.5324 82.9547 90.7469 87.7644C103.594 92.4404 117.98 86.037 122.79 72.8226C127.466 59.9752 120.695 45.4558 107.848 40.7798ZM164.419 141.183L82.1963 111.257C56.1346 101.771 42.827 73.2329 52.3127 47.1711C61.6648 21.4763 90.3366 7.80173 116.398 17.2874C134.018 23.7003 145.827 39.2224 148.692 56.4773C161.611 44.9673 180.635 40.6677 198.621 47.2142C224.316 56.5663 237.857 85.6051 228.505 111.3C219.019 137.362 190.114 150.536 164.419 141.183ZM190.071 70.7065C176.857 65.8969 162.704 72.801 158.028 85.6483C153.218 98.8628 159.756 112.881 172.97 117.691C185.817 122.367 200.203 115.964 205.013 102.749C209.689 89.902 202.918 75.3826 190.071 70.7065ZM239.501 170.174C242.871 173.479 243.971 178.452 242.367 182.856L216.716 253.333C214.979 258.105 210.94 261.208 206.234 261.573C201.528 261.939 196.89 259.835 194.155 255.93L177.075 229.76L174.006 224.486L176.144 218.613L188.97 183.375L191.107 177.502L196.715 175.801L226.62 166.732C231.226 165.499 236.265 166.502 239.501 170.174ZM54.4288 114.452L77.9211 123.003L160.144 152.93C172.992 157.606 179.762 172.125 175.086 184.972L162.26 220.211C157.451 233.425 143.065 239.829 130.217 235.153L47.9943 205.226C34.7799 200.416 28.2429 186.398 33.0525 173.183L45.8783 137.945L34.1321 133.669C27.5249 131.265 24.2564 124.255 26.6612 117.648C28.9324 111.408 36.0754 107.772 42.6826 110.177L54.4288 114.452Z" fill="#3730A3"/>
</svg>
