<svg width="183" height="190" viewBox="0 0 183 190" fill="none" xmlns="http://www.w3.org/2000/svg">
<path d="M224.585 60.7861C225.319 61.0533 225.552 61.554 226.286 61.8212L163.202 91.2379L162.701 91.4714L128.564 79.0464L192.149 49.3962L192.65 49.1628L224.585 60.7861ZM230.976 116.321L187.662 100.556L239.732 76.2758C241.199 81.3824 241.531 87.3229 239.527 92.8289L230.976 116.321ZM168.056 40.2115L104.471 69.8616L103.971 70.0951L69.8334 57.6701L133.418 28.02L133.919 27.7865L168.056 40.2115ZM83.6308 9.4831L109.326 18.8352L45.7405 48.4854L45.2399 48.7188L43.0375 47.9172L51.588 24.4249C56.264 11.5775 70.4164 4.67344 83.6308 9.4831ZM226.701 128.067L196.774 210.291C191.964 223.505 177.579 229.908 164.731 225.232L23.7773 173.929C10.5628 169.12 4.0258 155.101 8.83546 141.886L38.7622 59.6634L226.701 128.067Z" fill="#3730A3"/>
</svg>
