<svg width="187" height="201" viewBox="0 0 187 201" fill="none" xmlns="http://www.w3.org/2000/svg">
<path d="M96.937 37.1725C106.652 25.3278 123.474 20.2267 138.891 25.8379C153.94 31.3156 163.548 46.0361 163.376 61.3544L177.325 66.4313C190.172 71.1073 196.943 85.6267 192.267 98.4741L149.514 215.936C144.704 229.15 130.319 235.554 117.471 230.877L23.502 196.675C10.2876 191.866 3.75055 177.847 8.56021 164.633L51.3127 47.1711C55.9888 34.3237 70.1411 27.4196 83.3555 32.2293L96.937 37.1725ZM137.811 65.3517C140.082 59.1115 136.58 51.6015 130.34 49.3303C123.733 46.9254 116.59 50.561 114.319 56.8012C111.914 63.4084 115.182 70.4177 121.79 72.8226C128.03 75.0938 135.406 71.9589 137.811 65.3517ZM110.736 97.4822C109.335 94.4782 105.297 93.0086 102.293 94.4094L76.1249 106.917L71.2221 96.4026C69.8213 93.3986 65.7836 91.929 62.7795 93.3298C59.7755 94.7306 58.3059 98.7683 59.7067 101.772L67.1776 117.794C68.5784 120.798 72.6162 122.267 75.6202 120.867L107.663 105.925C110.667 104.524 112.137 100.486 110.736 97.4822ZM110.562 121.945C107.258 120.742 103.62 122.744 102.551 125.68C101.349 128.984 102.983 132.489 106.286 133.691L141.525 146.517C144.462 147.586 148.333 146.085 149.536 142.781C150.604 139.845 148.737 135.839 145.8 134.771L110.562 121.945ZM77.9791 156.644C76.7767 159.947 78.411 163.452 81.7146 164.654L128.699 181.755C131.636 182.824 135.507 181.323 136.71 178.02C137.779 175.083 135.911 171.078 132.974 170.009L85.9898 152.908C82.6862 151.706 79.0479 153.707 77.9791 156.644ZM51.2804 156.903C56.0522 158.639 61.426 156.438 63.2964 151.299C65.0332 146.528 62.4651 141.02 57.6932 139.283C52.5543 137.413 47.414 140.115 45.6772 144.887C43.8068 150.026 46.1414 155.032 51.2804 156.903Z" fill="#3730A3"/>
</svg>
