<svg width="183" height="190" viewBox="0 0 183 190" fill="none" xmlns="http://www.w3.org/2000/svg">
<path d="M51.588 24.4249C56.264 11.5775 70.4164 4.67344 83.6308 9.4831L224.585 60.7861C237.432 65.4622 244.203 79.9816 239.527 92.8289L196.774 210.291C191.964 223.505 177.579 229.908 164.731 225.232L23.7773 173.929C10.5628 169.12 4.0258 155.101 8.83546 141.886L51.588 24.4249ZM32.8676 130.68L28.5923 142.426C27.3899 145.73 29.0242 149.235 32.3278 150.437L44.0739 154.712C47.0105 155.781 50.8822 154.28 52.0846 150.977L56.3599 139.231C57.4287 136.294 55.561 132.289 52.6244 131.22L40.8783 126.945C37.5747 125.742 33.9364 127.744 32.8676 130.68ZM170.086 173.972C166.782 172.77 163.144 174.771 162.075 177.708L157.8 189.454C156.598 192.758 158.232 196.262 161.536 197.465L173.282 201.74C176.218 202.809 180.09 201.308 181.292 198.005L185.568 186.258C186.636 183.322 184.769 179.317 181.832 178.248L170.086 173.972ZM49.9686 83.6955L45.6933 95.4417C44.4909 98.7453 46.1252 102.25 49.4288 103.452L61.1749 107.728C64.1115 108.796 67.9832 107.296 69.1856 103.992L73.4609 92.246C74.5297 89.3095 72.662 85.3041 69.7254 84.2353L57.9793 79.96C54.6757 78.7576 51.0374 80.759 49.9686 83.6955ZM187.187 126.988C183.883 125.785 180.245 127.787 179.176 130.723L174.901 142.469C173.699 145.773 175.333 149.278 178.637 150.48L190.383 154.755C193.319 155.824 197.191 154.324 198.393 151.02L202.669 139.274C203.737 136.337 201.87 132.332 198.933 131.263L187.187 126.988ZM67.0696 36.7109L62.7943 48.457C61.5919 51.7606 63.2262 55.2653 66.5298 56.4677L78.2759 60.743C81.2125 61.8118 85.0842 60.3111 86.2867 57.0075L90.5619 45.2614C91.6307 42.3248 89.763 38.3195 86.8265 37.2507L75.0803 32.9754C71.7767 31.773 68.1384 33.7743 67.0696 36.7109ZM204.288 80.0032C200.984 78.8008 197.346 80.8021 196.277 83.7386L192.002 95.4848C190.8 98.7884 192.434 102.293 195.738 103.495L207.484 107.771C210.42 108.84 214.292 107.339 215.494 104.035L219.77 92.2891C220.838 89.3526 218.971 85.3472 216.034 84.2784L204.288 80.0032ZM106.044 57.5473L97.493 81.0396C95.0882 87.6469 98.3567 94.6562 104.964 97.0611L151.949 114.162C158.189 116.433 165.565 113.298 167.97 106.691L176.52 83.1988C178.792 76.9587 175.29 69.4487 169.05 67.1774L122.065 50.0764C115.458 47.6716 108.315 51.3072 106.044 57.5473ZM96.4134 120.553C89.8062 118.149 82.6632 121.784 80.392 128.024L71.8415 151.517C69.4367 158.124 72.7052 165.133 79.3124 167.538L126.297 184.639C132.537 186.91 139.914 183.775 142.318 177.168L150.869 153.676C153.14 147.436 149.638 139.926 143.398 137.654L96.4134 120.553Z" fill="#3730A3"/>
</svg>
