<svg width="189" height="205" viewBox="0 0 189 205" fill="none" xmlns="http://www.w3.org/2000/svg">
<path d="M148.737 244.698C128.649 233.645 118.846 203.473 114.114 182.213C110.914 168.162 114.289 153.178 121.435 140.398L152.289 83.0384C153.858 79.8684 156.662 76.7322 160.401 75.5986C169.746 72.7646 192.307 70.1681 231.515 91.5052C270.722 112.842 280.795 133.136 283.495 142.849C284.629 146.587 283.293 150.258 281.59 153.795L250.869 210.787C243.59 223.934 233.041 234.644 219.557 239.713C199.196 247.683 168.824 255.75 148.737 244.698ZM192.118 144.924L192.252 144.557C196.292 136.883 193.825 127.671 186.151 123.63C178.977 119.356 169.631 122.19 165.224 129.732C165.09 130.099 165.09 130.099 164.957 130.466C164.289 132.301 165.723 134.07 168.193 134.138C171.897 134.239 175.334 135.074 178.738 137.144C182.275 138.848 185.044 141.518 187.179 144.789C188.246 146.425 190.95 146.993 192.118 144.924ZM230.524 168.464C231.591 170.099 233.927 170.534 235.096 168.465L235.597 168.232C239.637 160.557 236.803 151.212 229.629 146.938C221.955 142.897 212.609 145.731 208.569 153.406C208.569 153.406 208.435 153.773 208.302 154.14C207.266 155.842 209.068 157.745 211.171 157.679C214.875 157.78 218.679 158.749 222.083 160.819C225.62 162.522 228.389 165.193 230.157 168.33L230.524 168.464ZM214.763 198.061C202.381 198.959 189.967 196.519 178.155 190.141C166.71 183.897 157.702 174.383 151.698 163.468C150.163 160.831 145.958 160.963 145.256 164.033C140.912 182.821 149.15 202.447 166.434 212.064C183.852 221.314 204.712 217.682 218.065 203.836C220.235 201.3 218.1 198.029 214.763 198.061ZM98.79 200.33C76.2977 195.885 58.2169 170.182 47.6097 151.356C40.6719 138.439 39.4748 123.454 42.3493 108.703L55.4504 45.298C56.4193 41.4937 58.1224 37.9566 61.0265 35.6881C69.3382 29.9837 90.4661 21.0459 133.849 29.7691C177.599 38.626 193.213 55.117 198.416 63.6621C198.783 63.7957 199.017 64.2964 199.25 64.797C179.261 59.1844 165.244 61.1493 156.399 63.7498C148.422 66.2505 143.681 72.4232 141.077 77.2949L116.601 122.842C115.5 122.441 114.632 122.541 113.531 122.141C100.015 119.3 86.3637 125.97 79.7524 137.282C77.9495 139.951 81.0857 142.756 84.3232 141.856C91.4324 139.455 99.6091 138.69 107.485 139.893C101.307 153.441 98.3986 169.426 101.932 184.846C103.032 189.819 104.231 195.659 105.932 201.267C103.462 201.199 101.126 200.765 98.79 200.33ZM113.308 85.0627C113.609 83.0938 111.173 81.7915 109.304 82.3583C105.566 83.4919 101.861 83.3907 97.9236 82.7888C94.1193 81.8198 90.4486 80.4838 87.5458 78.1802C85.9777 76.7781 83.3745 77.0776 83.0735 79.0466C82.9399 79.4137 82.9399 79.4137 82.8063 79.7807C80.9683 88.257 86.3056 96.4351 94.9155 97.906C103.025 99.6105 111.203 94.2731 113.041 85.7968C113.041 85.7968 113.174 85.4298 113.308 85.0627Z" fill="#3730A3"/>
</svg>
