<svg width="187" height="202" viewBox="0 0 187 202" fill="none" xmlns="http://www.w3.org/2000/svg">
<path d="M250.645 70.4231C252.78 73.6943 253.413 77.6659 252.077 81.3366L242.458 107.765L207.187 204.671C201.175 221.189 180.715 228.292 161.26 221.211C141.806 214.13 130.698 195.538 136.71 179.02C142.588 162.869 163.182 155.399 182.637 162.48C186.674 163.95 190.445 166.153 193.715 168.591L213.221 114.999L108.964 109.061L81.1748 185.411C75.1627 201.929 54.7027 209.032 35.2482 201.951C15.7936 194.87 4.68576 176.278 10.6978 159.76C16.5763 143.609 37.1699 136.139 56.6244 143.22C60.6622 144.69 64.4327 146.893 67.7026 149.331L88.678 91.7009L98.2974 65.2721C100.168 60.1331 105.075 56.9307 110.381 57.1993L240.668 64.7133C244.74 64.9481 248.51 67.1519 250.645 70.4231Z" fill="#3730A3"/>
</svg>
