<svg width="188" height="193" viewBox="0 0 188 193" fill="none" xmlns="http://www.w3.org/2000/svg">
<path d="M199.62 57.8916C212.137 52.0549 227.187 57.5326 233.023 70.0493L242.128 89.5754C247.965 102.092 242.487 117.142 229.971 122.979L205.939 134.185L175.588 69.0979L199.62 57.8916ZM164.073 74.4676L194.423 139.555L77.7673 193.952C72.7606 196.287 66.9199 197.487 61.2465 197.084L12.0217 194.133C8.81798 193.798 5.78158 191.862 4.51439 188.491C2.74652 185.353 3.2148 181.782 5.38482 179.247L34.398 139.507C37.7367 134.903 42.41 131.2 47.4167 128.865L164.073 74.4676Z" fill="#3730A3"/>
</svg>
