<svg width="187" height="201" viewBox="0 0 187 201" fill="none" xmlns="http://www.w3.org/2000/svg">
<path d="M58.7836 63.1925C58.9172 62.8254 59.0508 62.4583 59.318 61.7242C61.9901 54.3829 69.5338 49.6461 77.4096 50.8498C77.3435 48.7473 77.8779 47.279 78.5459 45.4437C81.7523 36.6341 91.3986 31.8311 100.575 35.1712C100.942 35.3048 101.543 35.9391 102.277 36.2063C106.651 29.9 114.761 27.0323 122.47 29.8379C125.406 30.9067 127.942 33.0767 129.977 35.4802C134.951 29.8082 142.928 27.3076 150.637 30.1132C157.978 32.7852 162.482 39.8283 162.646 47.3708C165.75 46.8377 169.087 46.8053 172.391 48.0077C179.732 50.6798 184.102 58.0899 183.399 65.7322C184.133 65.9994 185.001 65.8996 185.735 66.1668C194.545 69.3732 199.214 79.3866 196.007 88.1962C195.339 90.0315 194.438 91.3662 193.403 93.0679C199.843 97.0746 202.944 105.686 200.272 113.027C200.005 113.761 199.504 113.995 199.37 114.362L167.436 102.739L90.7185 74.8158L58.7836 63.1925ZM53.0401 74.4042L78.3678 83.6227L55.2776 182.468C54.4423 185.905 56.5772 189.176 59.6474 189.878C63.0846 190.713 66.7229 188.712 67.0575 185.508L90.481 88.0316L119.112 98.4525L84.9102 192.422C83.7078 195.725 85.3421 199.23 88.6457 200.432C91.5822 201.501 95.454 200.001 96.6564 196.697L130.858 102.728L159.49 113.149L114.409 202.743C112.973 205.546 114.107 209.284 117.277 210.853C120.08 212.289 123.818 211.156 125.388 207.986L171.236 117.424L196.563 126.642C202.437 128.78 205.472 135.289 203.334 141.162C203.067 141.896 202.299 142.864 202.032 143.598L143.07 225.645C138.429 232.686 129.585 235.286 121.509 232.347L42.5895 203.623C34.514 200.684 29.7772 193.14 30.3805 184.63L38.3196 84.0114C38.2198 83.1437 38.6206 82.0425 38.8878 81.3083C41.0254 75.4353 47.167 72.2666 53.0401 74.4042Z" fill="#3730A3"/>
</svg>
