<svg width="187" height="201" viewBox="0 0 187 201" fill="none" xmlns="http://www.w3.org/2000/svg">
<path d="M99.8952 78.1559C83.3771 72.1438 75.2058 54.6204 81.2179 38.1023C87.0964 21.9514 104.753 13.413 121.271 19.4251C137.422 25.3035 145.827 43.3276 139.949 59.4786C133.937 75.9966 116.046 84.0343 99.8952 78.1559ZM234.976 127.321C218.458 121.309 210.287 103.786 216.299 87.2677C222.177 71.1168 239.834 62.5784 256.352 68.5905C272.503 74.4689 280.908 92.493 275.03 108.644C269.017 125.162 251.127 133.2 234.976 127.321ZM28.4668 109.94C36.3493 88.2826 60.0144 76.9427 81.6714 84.8252L97.4553 90.57C103.328 92.7076 108.3 96.1799 112.637 100.253C110.968 102.555 109.899 105.492 108.964 108.061C103.753 122.377 105.084 136.995 111.922 149.044C111.922 149.044 111.922 149.044 111.555 148.911L33.3696 120.454C28.9648 118.85 26.8636 114.344 28.4668 109.94ZM174.324 171.757L173.956 171.623C186.94 166.788 197.356 156.445 202.566 142.129C203.501 139.56 204.57 136.623 205.138 133.92C210.712 133.455 216.752 133.991 222.625 136.128L238.409 141.873C260.066 149.756 271.272 173.788 263.39 195.445C261.787 199.849 256.914 201.817 252.509 200.214L174.324 171.757ZM191.187 137.988C184.106 157.442 162.577 167.481 143.123 160.401C123.668 153.32 113.629 131.791 120.71 112.336C127.791 92.8817 149.32 82.8427 168.774 89.9236C188.229 97.0045 198.268 118.533 191.187 137.988ZM50.468 195.682C60.3545 168.519 90.0276 154.378 117.191 164.264L160.137 179.896C187.3 189.782 201.308 219.822 191.422 246.985C189.551 252.124 183.543 254.926 178.037 252.922L56.5381 208.7C51.3991 206.829 48.464 201.188 50.468 195.682Z" fill="#3730A3"/>
</svg>
